<svg width="177" height="79" viewBox="0 0 177 79" fill="none" xmlns="http://www.w3.org/2000/svg">
<rect width="177" height="79" fill="#E5E5E5"/>
<rect width="177" height="79" fill="white"/>
<path d="M49.3396 65.635L47.0232 45.7635L44.9017 45.5317L45.2609 43.1366H53.6671L53.3079 45.5317L50.8327 45.8871L51.896 57.4453L52.1196 59.8095L52.211 59.825L53.2867 57.4453L59.964 43.1366H63.0421L65.5175 57.6771L65.8597 59.9795H65.9534L66.9081 57.6771L71.5202 45.8871L69.011 45.5317L69.3703 43.1366H77.6203L77.261 45.5317L75.2107 45.7635L66.9958 65.635H63.3708L60.918 51.4653L60.6458 49.4256H60.552L59.6321 51.4962L52.9021 65.635H49.3396ZM111.011 65.635L111.368 63.2553L113.94 62.7763L116.453 46.0262L114.027 45.5317L114.386 43.1366H116.886H123.917C125.948 43.1366 127.653 43.6105 129.032 44.5582C130.421 45.5059 131.418 46.8091 132.024 48.4676C132.629 50.1261 132.771 52.0268 132.45 54.1695L132.383 54.6176C132.066 56.7294 131.366 58.6197 130.282 60.2885C129.2 61.947 127.827 63.2553 126.162 64.2134C124.51 65.1611 122.673 65.635 120.652 65.635H111.011ZM117.899 62.6372H120.899C122.232 62.6372 123.42 62.287 124.462 61.5865C125.517 60.8757 126.385 59.9177 127.065 58.7124C127.748 57.4968 128.202 56.1319 128.43 54.6176L128.499 54.154C128.732 52.5985 128.689 51.2232 128.368 50.0283C128.049 48.823 127.467 47.8753 126.622 47.1851C125.788 46.4949 124.705 46.1498 123.371 46.1498H120.371L117.899 62.6372Z" fill="#4F68EC"/>
<path d="M83.9784 65.9595C82.3847 65.9595 81.0466 65.6092 79.9641 64.9087C78.8937 64.1979 78.1238 63.2193 77.6545 61.9728C77.1956 60.7263 77.0867 59.2996 77.3277 57.6926L77.425 57.0436C77.6692 55.4159 78.204 53.9686 79.0294 52.7015C79.8668 51.4241 80.9021 50.4249 82.1353 49.7038C83.37 48.9724 84.7061 48.6067 86.1436 48.6067C87.6748 48.6067 88.9105 48.9106 89.8506 49.5184C90.8011 50.1261 91.4578 50.9915 91.8206 52.1143C92.185 53.2269 92.2498 54.5661 92.0149 56.1319L91.6812 58.357H81.3062L81.2633 58.4343C81.1737 59.3099 81.2393 60.0876 81.4602 60.7675C81.6916 61.4474 82.08 61.9831 82.6255 62.3746C83.1813 62.766 83.8968 62.9617 84.7718 62.9617C85.6884 62.9617 86.5403 62.8381 87.3274 62.5909C88.1145 62.3437 88.8597 61.9934 89.5631 61.5401L90.4313 63.9816C89.6812 64.5379 88.762 65.0066 87.6735 65.3877C86.5851 65.7689 85.3534 65.9595 83.9784 65.9595ZM81.7789 55.622H88.3258L88.386 55.2202C88.4957 54.4888 88.4769 53.8501 88.3297 53.3041C88.1943 52.7479 87.9103 52.3152 87.4775 52.0062C87.0551 51.6971 86.4793 51.5426 85.7501 51.5426C85.1147 51.5426 84.5311 51.7177 83.9994 52.068C83.4677 52.4182 83.0105 52.8972 82.6277 53.505C82.2568 54.1025 81.9621 54.7824 81.7436 55.5447L81.7789 55.622ZM102.275 65.9595C101.213 65.9595 100.327 65.7534 99.618 65.3414C98.909 64.9293 98.3527 64.3318 97.9493 63.5489L97.324 65.635H93.9333L97.12 44.3882L94.7052 43.9247L95.0644 41.5296H101.471L100.082 50.7854C100.699 50.0746 101.406 49.5338 102.201 49.163C103.006 48.7921 103.904 48.6067 104.894 48.6067C106.279 48.6067 107.395 48.9775 108.242 49.7192C109.101 50.4506 109.686 51.4808 109.998 52.8097C110.309 54.1386 110.33 55.6992 110.061 57.4917L110.012 57.8162C109.768 59.4438 109.299 60.8705 108.605 62.0964C107.91 63.3223 107.028 64.2752 105.957 64.9551C104.888 65.6247 103.661 65.9595 102.275 65.9595ZM101.611 62.8845C102.903 62.8845 103.908 62.4364 104.626 61.5401C105.355 60.6336 105.838 59.3923 106.075 57.8162L106.123 57.4917C106.3 56.3173 106.322 55.2975 106.192 54.4321C106.063 53.5565 105.763 52.8818 105.292 52.4079C104.823 51.9237 104.162 51.6817 103.307 51.6817C102.516 51.6817 101.81 51.8722 101.19 52.2534C100.583 52.6242 100.064 53.129 99.6351 53.7677L98.5644 60.9066C98.8139 61.535 99.1884 62.0243 99.688 62.3746C100.199 62.7145 100.841 62.8845 101.611 62.8845ZM140.76 65.9595C139.166 65.9595 137.828 65.6092 136.745 64.9087C135.675 64.1979 134.905 63.2193 134.436 61.9728C133.977 60.7263 133.868 59.2996 134.109 57.6926L134.206 57.0436C134.45 55.4159 134.985 53.9686 135.811 52.7015C136.648 51.4241 137.683 50.4249 138.917 49.7038C140.151 48.9724 141.487 48.6067 142.925 48.6067C144.456 48.6067 145.692 48.9106 146.632 49.5184C147.582 50.1261 148.239 50.9915 148.602 52.1143C148.966 53.2269 149.031 54.5661 148.796 56.1319L148.462 58.357H138.087L138.045 58.4343C137.955 59.3099 138.021 60.0876 138.241 60.7675C138.473 61.4474 138.861 61.9831 139.407 62.3746C139.963 62.766 140.678 62.9617 141.553 62.9617C142.47 62.9617 143.322 62.8381 144.109 62.5909C144.896 62.3437 145.641 61.9934 146.344 61.5401L147.213 63.9816C146.462 64.5379 145.543 65.0066 144.455 65.3877C143.366 65.7689 142.135 65.9595 140.76 65.9595ZM138.56 55.622H145.107L145.167 55.2202C145.277 54.4888 145.258 53.8501 145.111 53.3041C144.976 52.7479 144.692 52.3152 144.259 52.0062C143.836 51.6971 143.261 51.5426 142.531 51.5426C141.896 51.5426 141.312 51.7177 140.781 52.068C140.249 52.4182 139.792 52.8972 139.409 53.505C139.038 54.1025 138.743 54.7824 138.525 55.5447L138.56 55.622ZM155.824 65.635L152.449 51.5735L150.691 51.3108L151.05 48.9157H158.785L158.426 51.3108L156.426 51.6199L158.214 60.0104L158.421 61.3393H158.515L159.183 60.0104L163.52 51.6199L161.426 51.3108L161.785 48.9157H169.503L169.144 51.3108L167.259 51.589L159.652 65.635H155.824Z" fill="#190333"/>
<path d="M10.8077 26.7013L9.09744 24.3526L21.831 12.7944L21.8872 12.7326L19.9017 12.5317L20.2609 10.1366H28.7453L28.386 12.5317L26.1828 12.9489L10.8077 26.7013ZM4.13645 32.635L4.49336 30.2553L7.04727 29.7918L9.56651 12.9953L7.15167 12.5317L7.5109 10.1366H16.339L15.9798 12.5317L13.504 12.9953L10.9848 29.7918L13.3215 30.2553L12.9646 32.635H4.13645ZM17.3865 32.635L17.7434 30.2553L19.7891 30.0545L19.7914 30.039L15.0198 21.8494L17.8987 19.1143L24.4263 29.869L26.5402 30.2553L26.1833 32.635H17.3865Z" fill="#4F68EC"/>
<path d="M35.0722 32.9595C33.8638 32.9595 32.7506 32.8461 31.7325 32.6195C30.7264 32.3826 29.7313 32.0375 28.7472 31.5842L29.3631 27.1649H32.1913L32.4235 29.5754C32.842 29.7712 33.2772 29.9257 33.7289 30.039C34.1927 30.142 34.7162 30.1935 35.2995 30.1935C36.4245 30.1935 37.2455 29.9978 37.7626 29.6063C38.29 29.2149 38.597 28.7307 38.6836 28.1538C38.767 27.5976 38.5933 27.1237 38.1624 26.7322C37.7435 26.3305 36.8734 25.9854 35.5521 25.6969C33.5961 25.2643 32.2008 24.6359 31.3661 23.8118C30.5433 22.9774 30.2316 21.8957 30.4309 20.5668C30.5684 19.65 30.9376 18.8207 31.5384 18.079C32.1496 17.3373 32.9676 16.745 33.9924 16.302C35.0292 15.8488 36.2506 15.6221 37.6569 15.6221C38.9381 15.6221 40.0535 15.7561 41.0029 16.0239C41.9643 16.2814 42.7615 16.6265 43.3945 17.0592L42.8509 21.3085H40.054L39.9011 19.0989C39.6121 18.8722 39.2634 18.6971 38.8549 18.5735C38.4463 18.4499 37.966 18.3881 37.4139 18.3881C36.5493 18.3881 35.8385 18.5786 35.2813 18.9598C34.7257 19.3307 34.4054 19.7994 34.3204 20.3659C34.2709 20.6956 34.3043 20.9943 34.4203 21.2622C34.5468 21.53 34.8223 21.7772 35.2466 22.0039C35.6829 22.2202 36.3335 22.4314 37.1984 22.6374C39.3207 23.1422 40.7947 23.8015 41.6205 24.6153C42.4464 25.4291 42.7589 26.5056 42.558 27.8448C42.334 29.3385 41.5981 30.5644 40.3502 31.5224C39.1023 32.4804 37.343 32.9595 35.0722 32.9595ZM52.0097 32.9595C50.4159 32.9595 49.0778 32.6092 47.9954 31.9087C46.9249 31.1979 46.155 30.2193 45.6857 28.9728C45.2268 27.7263 45.1179 26.2996 45.359 24.6926L45.4563 24.0436C45.7004 22.4159 46.2352 20.9686 47.0607 19.7015C47.8981 18.4241 48.9334 17.4249 50.1665 16.7038C51.4012 15.9724 52.7373 15.6067 54.1748 15.6067C55.7061 15.6067 56.9418 15.9106 57.8818 16.5184C58.8324 17.1261 59.489 17.9915 59.8519 19.1143C60.2162 20.2269 60.281 21.5661 60.0462 23.1319L59.7124 25.357H49.3374L49.2946 25.4343C49.2049 26.3099 49.2706 27.0876 49.4915 27.7675C49.7229 28.4474 50.1113 28.9831 50.6567 29.3746C51.2126 29.766 51.928 29.9617 52.803 29.9617C53.7197 29.9617 54.5716 29.8381 55.3586 29.5909C56.1457 29.3437 56.891 28.9934 57.5944 28.5401L58.4626 30.9816C57.7125 31.5379 56.7932 32.0066 55.7048 32.3877C54.6164 32.7689 53.3847 32.9595 52.0097 32.9595ZM49.8101 22.622H56.357L56.4173 22.2202C56.527 21.4888 56.5082 20.8501 56.3609 20.3041C56.2256 19.7479 55.9415 19.3152 55.5087 19.0062C55.0863 18.6971 54.5105 18.5426 53.7814 18.5426C53.1459 18.5426 52.5624 18.7177 52.0307 19.068C51.499 19.4182 51.0417 19.8972 50.6589 20.505C50.288 21.1025 49.9934 21.7824 49.7749 22.5447L49.8101 22.622ZM60.7458 32.635L61.1027 30.2553L63.516 29.7918L65.1685 18.7744L62.7693 18.3108L63.1285 15.9157H69.2222L69.0615 18.3417C69.7538 17.4764 70.5521 16.8068 71.4565 16.3329C72.3729 15.8488 73.3623 15.6067 74.4248 15.6067C76.1644 15.6067 77.439 16.1372 78.2486 17.1983C79.0598 18.249 79.2969 19.8972 78.9601 22.1429L77.8129 29.7918L80.0871 30.2553L79.7302 32.635H71.2458L71.6027 30.2553L73.8754 29.7918L75.018 22.1739C75.208 20.9068 75.0872 20.0105 74.6556 19.4852C74.2255 18.9495 73.5053 18.6817 72.4949 18.6817C71.7345 18.6817 71.0423 18.8516 70.4184 19.1916C69.8065 19.5212 69.2786 19.9848 68.8348 20.5823L67.4535 29.7918L69.5246 30.2553L69.1677 32.635H60.7458ZM83.5612 39.3876C83.2382 39.3876 82.8679 39.3567 82.4501 39.2948C82.0427 39.233 81.6897 39.1558 81.3911 39.0631L82.2666 36.1426C82.4495 36.1735 82.6696 36.1993 82.9269 36.2199C83.1946 36.2405 83.4066 36.2508 83.5629 36.2508C84.2191 36.2508 84.8021 36.0447 85.3118 35.6327C85.82 35.2309 86.2688 34.6695 86.6582 33.9484L87.3755 32.6041L83.6963 18.589L81.7693 18.3108L82.1285 15.9157H90.316L89.9568 18.3108L87.8323 18.6199L89.6017 26.4077L89.8995 27.8602H89.9932L94.8502 18.6044L92.8161 18.3108L93.1754 15.9157H100.941L100.582 18.3108L98.7142 18.5735L89.6806 35.1537C89.2506 35.9366 88.7534 36.6474 88.1888 37.2861C87.6332 37.9351 86.9734 38.445 86.2094 38.8158C85.4543 39.197 84.5716 39.3876 83.5612 39.3876ZM105.072 32.9595C103.353 32.9595 102.081 32.5216 101.254 31.646C100.427 30.7704 100.128 29.5651 100.358 28.0302C100.516 26.9795 100.946 26.0575 101.648 25.2643C102.351 24.4711 103.297 23.853 104.489 23.41C105.682 22.9568 107.08 22.7301 108.685 22.7301H111.263L111.474 21.324C111.606 20.4381 111.441 19.7324 110.979 19.207C110.526 18.6817 109.789 18.419 108.769 18.419C108.185 18.419 107.659 18.4911 107.189 18.6353C106.721 18.7692 106.291 18.965 105.898 19.2225L105.2 21.4785H102.31L102.897 17.3528C103.811 16.8171 104.801 16.3947 105.869 16.0857C106.937 15.7664 108.097 15.6067 109.347 15.6067C111.493 15.6067 113.105 16.1063 114.184 17.1055C115.276 18.0945 115.682 19.5161 115.404 21.3703L114.299 28.741C114.265 28.9677 114.231 29.1891 114.199 29.4055C114.177 29.6218 114.161 29.833 114.151 30.039L115.837 30.2553L115.48 32.635H110.34C110.289 32.2744 110.243 31.9242 110.2 31.5842C110.168 31.2443 110.156 30.9043 110.166 30.5644C109.498 31.2649 108.729 31.8418 107.859 32.295C107.001 32.738 106.072 32.9595 105.072 32.9595ZM106.415 29.9463C107.206 29.9463 107.973 29.766 108.715 29.4055C109.458 29.0346 110.043 28.571 110.47 28.0148L110.89 25.2179H108.265C107.087 25.2179 106.156 25.4909 105.47 26.0369C104.796 26.5726 104.405 27.201 104.296 27.9221C104.199 28.571 104.333 29.0707 104.697 29.4209C105.061 29.7712 105.633 29.9463 106.415 29.9463Z" fill="#190333"/>
</svg>
