<svg width="88" height="88" viewBox="0 0 88 88" fill="none" xmlns="http://www.w3.org/2000/svg">
<rect x="72" y="60" width="56" height="56" rx="28" transform="rotate(-180 72 60)" fill="black" fill-opacity="0.01"/>
<g filter="url(#filter0_d_832_2)">
<rect x="72" y="60" width="56" height="56" rx="28" transform="rotate(-180 72 60)" fill="white"/>
</g>
<path d="M38.0939 32.0624C38.4064 32.3749 38.8752 32.3436 39.1877 32.0624L42.7502 28.2811V37.2499C42.7502 37.6874 43.0939 37.9999 43.5002 37.9999H44.5002C44.9377 37.9999 45.2502 37.6874 45.2502 37.2499V28.2811L48.8439 32.0624C49.1564 32.3436 49.6252 32.3436 49.9377 32.0624L50.6252 31.3749C50.9064 31.0624 50.9064 30.5936 50.6252 30.3124L44.5314 24.2186C44.2502 23.9374 43.7814 23.9374 43.4689 24.2186L37.4064 30.3124C37.1252 30.5936 37.1252 31.0624 37.4064 31.3749L38.0939 32.0624Z" fill="#334085"/>
<defs>
<filter id="filter0_d_832_2" x="0" y="0" width="88" height="88" filterUnits="userSpaceOnUse" color-interpolation-filters="sRGB">
<feFlood flood-opacity="0" result="BackgroundImageFix"/>
<feColorMatrix in="SourceAlpha" type="matrix" values="0 0 0 0 0 0 0 0 0 0 0 0 0 0 0 0 0 0 127 0" result="hardAlpha"/>
<feOffset dy="12"/>
<feGaussianBlur stdDeviation="8"/>
<feColorMatrix type="matrix" values="0 0 0 0 0 0 0 0 0 0 0 0 0 0 0 0 0 0 0.08 0"/>
<feBlend mode="normal" in2="BackgroundImageFix" result="effect1_dropShadow_832_2"/>
<feBlend mode="normal" in="SourceGraphic" in2="effect1_dropShadow_832_2" result="shape"/>
</filter>
</defs>
</svg>
